<?xml version="1.0" standalone="no"?>
<!DOCTYPE svg PUBLIC "-//W3C//DTD SVG 20010904//EN"
 "http://www.w3.org/TR/2001/REC-SVG-20010904/DTD/svg10.dtd">
<svg version="1.0" xmlns="http://www.w3.org/2000/svg"
 width="150.000000pt" height="150.000000pt" viewBox="0 0 150.000000 150.000000"
 preserveAspectRatio="xMidYMid meet">

<g transform="translate(0.000000,150.000000) scale(0.100000,-0.100000)"
fill="#000000" stroke="none">
<path d="M660 1493 c-50 -5 -180 -44 -180 -54 0 -5 7 -6 15 -3 8 4 15 1 15 -7
0 -7 -3 -9 -6 -6 -4 3 -16 1 -27 -4 -14 -8 -21 -8 -27 0 -3 7 -14 9 -23 5 -9
-3 -14 -10 -11 -15 7 -11 -28 -42 -76 -68 -19 -11 -45 -29 -57 -40 -26 -25
-37 -27 -29 -5 3 9 2 12 -5 9 -6 -4 -8 -13 -5 -20 3 -8 -3 -19 -11 -27 -15
-11 -16 -11 -9 6 7 19 6 19 -14 1 -24 -22 -25 -26 -5 -19 22 9 18 -7 -10 -38
-27 -31 -40 -36 -31 -12 6 15 4 15 -10 3 -10 -8 -12 -15 -5 -17 6 -2 11 -8 11
-14 0 -6 -7 -8 -14 -5 -11 4 -13 1 -9 -10 5 -12 3 -14 -7 -8 -8 5 -11 4 -7 -3
10 -15 -3 -43 -16 -35 -5 3 -7 2 -4 -4 7 -11 -31 -93 -43 -93 -5 0 -6 -8 -3
-19 3 -10 0 -22 -6 -25 -5 -4 -8 -13 -4 -21 3 -8 1 -15 -5 -15 -6 0 -8 -9 -5
-20 3 -12 0 -20 -6 -20 -7 0 -9 -5 -5 -11 3 -6 0 -15 -7 -20 -9 -6 -10 -9 -2
-9 15 0 5 -71 -11 -82 -8 -5 -7 -8 2 -8 7 0 12 -13 12 -33 0 -49 20 -151 32
-162 10 -10 9 -2 -9 72 -6 26 8 30 27 8 7 -8 9 -23 4 -37 -7 -23 -6 -23 14 2
l20 25 -34 23 c-37 25 -48 43 -11 20 12 -8 33 -21 46 -27 l23 -13 -29 -31
c-54 -59 -55 -61 -37 -103 9 -21 20 -50 25 -63 5 -13 12 -22 14 -19 3 3 -2 22
-10 43 -19 43 -15 51 15 35 12 -6 24 -10 26 -7 3 2 -14 12 -38 22 -24 10 -37
20 -31 22 7 2 23 -3 35 -11 12 -9 32 -16 45 -16 12 0 24 -4 27 -9 6 -9 -23
-39 -31 -33 -3 2 -8 0 -11 -4 -4 -4 -1 -4 5 0 16 9 16 4 1 -29 -6 -14 -15 -25
-20 -25 -11 0 39 -95 58 -111 9 -7 14 -6 20 3 4 7 3 10 -1 5 -8 -6 -65 68 -65
85 0 4 15 2 32 -3 18 -5 45 -9 59 -9 l26 0 -23 -47 c-13 -25 -24 -52 -24 -59
0 -13 108 -114 122 -114 4 0 8 7 8 16 0 8 -4 13 -8 10 -7 -4 -62 36 -109 78
-1 0 30 1 68 1 56 0 68 -3 64 -15 -4 -15 -8 -85 -6 -105 1 -6 4 -6 9 0 4 6 31
21 60 32 51 21 52 21 52 3 0 -11 5 -40 12 -65 9 -34 18 -47 35 -51 13 -4 21
-9 19 -13 -2 -3 19 -7 46 -8 28 -1 47 1 43 5 -3 4 -12 7 -18 7 -18 1 -99 26
-96 29 2 2 19 11 37 20 l34 17 -6 -23 c-3 -13 -3 -17 0 -10 3 6 10 9 16 6 6
-4 8 1 4 14 -4 11 -2 23 4 27 5 3 10 0 10 -7 0 -7 8 -32 17 -55 15 -36 23 -43
46 -43 15 0 27 -3 27 -8 0 -4 18 -6 40 -4 28 3 40 0 40 -9 0 -9 4 -8 13 3 8
10 36 18 80 22 37 4 90 15 117 26 28 11 50 17 50 15 0 -3 11 2 25 11 14 9 25
13 25 9 0 -3 7 1 16 10 9 9 41 31 71 51 72 46 182 159 206 212 6 12 14 22 19
22 5 0 6 4 3 10 -3 5 -2 10 3 10 19 0 76 188 87 290 4 30 9 58 11 62 3 4 1 8
-4 8 -5 0 -9 17 -9 38 1 61 -26 162 -66 252 -11 25 -21 49 -21 53 -1 4 -6 11
-12 15 -6 4 -17 17 -23 30 -16 31 -38 57 -81 97 -61 58 -84 76 -128 102 -23
14 -40 29 -36 34 3 5 -3 6 -12 2 -11 -4 -15 -3 -11 4 5 7 0 9 -13 6 -14 -4
-27 2 -40 17 -11 13 -20 18 -20 11 0 -9 -5 -9 -20 -1 -12 7 -18 16 -13 23 4 7
0 7 -10 -2 -11 -8 -17 -9 -17 -3 0 7 -7 9 -17 5 -12 -5 -14 -3 -8 8 7 11 6 12
-6 3 -10 -8 -34 -9 -86 -1 -71 10 -91 21 -55 30 20 6 -78 5 -128 0z m68 -15
c-5 -15 -78 -21 -78 -6 0 6 3 9 6 6 3 -3 17 -2 32 2 38 12 44 11 40 -2z m32 2
c0 -5 -4 -10 -10 -10 -5 0 -10 5 -10 10 0 6 5 10 10 10 6 0 10 -4 10 -10z
m-150 -20 c0 -5 -9 -10 -20 -10 -11 0 -20 5 -20 10 0 6 9 10 20 10 11 0 20 -4
20 -10z m30 6 c0 -3 -4 -8 -10 -11 -5 -3 -10 -1 -10 4 0 6 5 11 10 11 6 0 10
-2 10 -4z m-80 -16 c0 -5 -4 -10 -10 -10 -5 0 -10 5 -10 10 0 6 5 10 10 10 6
0 10 -4 10 -10z m200 5 c0 -2 -4 -14 -10 -27 -5 -13 -14 -42 -20 -65 -8 -33
-16 -43 -31 -43 -19 0 -20 4 -14 58 8 63 11 68 40 75 30 7 35 7 35 2z m60 -41
c0 -18 -13 -24 -38 -17 -26 6 -28 16 -6 38 12 12 19 13 30 4 8 -6 14 -17 14
-25z m83 30 c3 -4 -3 -18 -13 -33 -11 -14 -21 -45 -23 -68 -3 -41 -3 -42 37
-52 22 -5 42 -8 45 -5 2 2 -1 4 -8 4 -8 0 -10 7 -5 22 6 20 5 21 -9 9 -40 -32
-65 29 -31 77 15 22 54 31 54 12 0 -5 5 -10 10 -10 6 0 10 7 10 15 0 12 4 13
25 3 32 -14 31 -21 -4 -85 -16 -29 -26 -55 -21 -58 5 -3 14 8 22 25 14 33 20
35 49 20 18 -10 18 -13 4 -39 -8 -16 -12 -31 -9 -34 3 -3 19 20 36 51 39 75
41 76 66 49 l22 -23 -29 -46 c-25 -38 -34 -46 -53 -41 -21 5 -21 3 7 -21 36
-31 48 -33 40 -7 -8 26 43 104 62 96 8 -3 19 -5 24 -5 21 0 6 -27 -38 -72 -26
-26 -44 -50 -41 -54 4 -3 22 12 42 33 39 42 43 37 21 -27 -8 -24 -13 -46 -10
-48 3 -3 27 15 53 41 26 26 50 47 54 47 3 0 23 -25 43 -55 l38 -55 -23 -25
c-13 -14 -19 -25 -13 -25 6 0 13 7 17 15 9 26 33 17 47 -17 31 -80 32 -78 -13
-62 -22 8 -49 14 -59 14 -22 0 -24 10 -6 30 6 8 3 7 -9 -3 -11 -9 -25 -17 -31
-17 -5 0 -10 -7 -10 -15 0 -8 4 -12 9 -9 4 3 8 -1 9 -8 0 -10 2 -10 6 0 8 19
23 14 23 -9 0 -11 -4 -17 -10 -14 -20 12 -10 -8 16 -32 22 -20 24 -26 13 -39
-11 -13 -10 -18 4 -25 18 -11 23 -39 7 -39 -5 0 -10 -7 -10 -15 0 -8 4 -15 9
-15 12 0 22 -30 14 -43 -4 -7 -9 -3 -14 9 -5 12 -7 2 -7 -31 0 -39 2 -45 8
-25 l8 25 1 -27 c1 -16 -4 -28 -9 -28 -7 0 -8 -13 -4 -35 4 -23 2 -35 -5 -35
-6 0 -11 -13 -11 -29 0 -16 -6 -31 -14 -34 -8 -3 -12 -15 -9 -30 4 -18 0 -26
-15 -29 -11 -3 -25 -16 -32 -29 -11 -23 -10 -23 4 -5 15 18 16 18 16 2 0 -10
-9 -20 -20 -23 -25 -7 -26 -23 -1 -23 25 0 48 -27 34 -41 -7 -7 -16 -4 -27 13
-16 21 -18 22 -27 5 -5 -9 -15 -17 -20 -17 -6 0 -7 6 -3 13 4 6 -14 -8 -40
-33 -46 -44 -57 -58 -35 -44 7 4 10 1 7 -7 -3 -8 -13 -16 -23 -17 -12 -3 -15
0 -9 10 6 11 5 11 -9 -1 -9 -7 -14 -18 -11 -23 9 -14 -17 -29 -37 -22 -11 3
-18 -3 -22 -17 -5 -17 -11 -20 -31 -15 -20 5 -26 3 -26 -9 0 -10 -8 -15 -22
-14 -13 1 -32 1 -43 0 -17 -1 -18 -3 -5 -12 11 -7 4 -8 -25 -4 -31 5 -37 4
-25 -5 12 -9 8 -10 -18 -5 -26 5 -36 3 -47 -11 -13 -18 -14 -18 -33 -1 -17 16
-21 16 -32 2 -16 -19 -25 -19 -44 0 -12 12 -20 13 -36 5 -16 -8 -23 -7 -37 10
-10 11 -20 15 -23 9 -8 -12 -40 -1 -40 15 0 7 -26 24 -58 39 -31 15 -48 21
-38 12 19 -15 19 -15 -2 -15 -15 0 -22 6 -22 19 0 23 -16 37 -23 19 -3 -10 -7
-10 -20 1 -9 7 -14 17 -11 22 3 5 -2 6 -11 3 -18 -7 -45 12 -45 34 0 12 4 12
23 -4 l22 -19 -19 23 c-24 28 -27 28 -51 -8 -21 -32 -45 -40 -45 -15 0 8 12
21 28 29 15 8 21 15 15 16 -7 0 -13 7 -13 16 0 14 3 14 18 3 16 -12 16 -11 -1
6 -10 11 -25 20 -35 20 -12 0 -17 8 -17 30 -1 19 -6 31 -17 33 -17 3 -31 29
-23 42 3 4 -2 13 -10 20 -16 13 -21 45 -6 36 4 -3 6 5 4 18 l-5 23 -23 -23
c-13 -13 -34 -24 -45 -24 -34 0 -18 25 18 28 29 3 31 6 26 29 -5 18 -3 24 5
19 6 -4 11 -1 11 9 0 8 -7 18 -15 21 -8 4 -15 13 -15 21 0 8 5 11 10 8 6 -3
10 3 10 15 0 12 -4 18 -10 15 -14 -9 -12 29 3 44 10 11 10 14 0 18 -17 6 -16
28 2 43 11 9 12 16 2 31 -10 17 -9 22 5 33 11 8 15 20 12 34 -4 14 0 25 14 33
12 8 17 19 14 31 -3 13 2 21 14 25 11 3 34 28 51 56 l33 52 -30 -35 c-17 -19
-30 -38 -30 -43 0 -4 -10 -5 -23 -1 -12 4 -47 7 -77 6 -30 -1 -50 2 -45 6 6 4
16 20 23 36 13 28 24 29 28 1 1 -8 -3 -15 -9 -16 -7 -1 4 -5 23 -9 19 -5 36
-7 38 -5 2 1 -11 19 -29 39 l-31 36 59 72 c33 40 64 73 69 75 10 3 54 -93 54
-117 0 -9 -6 -22 -12 -30 -7 -8 -1 -4 13 8 26 22 26 25 12 53 -14 28 -14 31 3
44 25 19 27 19 42 -6 11 -18 11 -24 -5 -42 -15 -18 -12 -17 12 3 17 14 35 28
40 33 6 5 3 6 -6 2 -12 -4 -27 9 -53 45 -21 29 -36 53 -34 55 9 8 48 25 56 25
15 0 64 -91 58 -107 -4 -10 -1 -11 14 -3 19 10 19 11 0 30 -20 20 -26 40 -12
40 4 0 22 -9 40 -20 21 -13 39 -17 48 -12 10 6 0 13 -36 26 -44 16 -49 20 -39
37 5 11 7 28 4 38 -4 14 2 21 25 30 34 11 34 11 61 -77 7 -23 16 -42 20 -42 5
0 16 14 25 32 l17 32 17 -22 c18 -22 63 -29 86 -14 6 4 14 20 18 35 6 25 11
28 39 25 25 -2 33 -8 35 -27 2 -13 -2 -28 -10 -32 -9 -6 -8 -9 7 -9 19 0 20 5
17 70 l-4 70 34 0 c19 0 37 -3 41 -6z m-230 -56 c-3 -29 -7 -55 -9 -57 -2 -2
-14 10 -28 25 l-24 29 -11 -27 c-6 -16 -12 -28 -15 -28 -2 0 -11 20 -19 45
l-16 45 32 9 c18 5 46 10 64 10 l32 1 -6 -52z m417 -19 c0 -34 -29 -49 -58
-31 -9 7 -10 15 -3 35 9 24 13 26 36 15 14 -6 25 -15 25 -19z m-627 5 c8 -9
-11 -44 -24 -44 -16 0 -23 31 -8 41 17 10 24 11 32 3z m-115 -86 c17 -17 15
-26 -8 -38 -15 -8 -21 -6 -30 10 -18 34 11 55 38 28z m917 -38 c18 -20 18 -21
-16 -49 -19 -16 -35 -28 -36 -28 -4 5 21 97 27 97 4 0 15 -9 25 -20z m-1164
-347 c-54 -27 -55 -27 -44 -10 4 6 6 20 5 29 -2 9 4 30 12 45 l15 28 11 -32
c7 -18 16 -33 21 -33 5 0 0 18 -11 40 -11 21 -20 45 -20 52 1 7 14 -12 29 -42
l29 -55 -47 -22z m84 87 c20 -23 17 -24 -19 -10 -14 5 -26 14 -26 20 0 17 26
11 45 -10z m1203 -32 c-5 -15 -58 -24 -58 -9 0 11 17 19 43 20 11 1 17 -4 15
-11z m49 -2 c-3 -7 -2 -17 3 -22 5 -5 11 -23 13 -41 3 -17 8 -38 12 -45 6 -10
5 -11 -6 0 -16 14 -33 16 -24 2 3 -6 -11 0 -31 12 -21 12 -32 24 -25 26 6 2
21 21 31 43 19 37 38 55 27 25z m-1303 -92 c9 -3 16 -10 16 -16 0 -14 -53 -5
-58 10 -4 13 16 16 42 6z m-40 -51 c35 -39 36 -42 16 -48 -11 -3 -35 -18 -53
-33 -22 -18 -26 -20 -14 -5 16 19 16 21 2 27 -10 3 -14 13 -11 23 3 10 7 33 8
51 1 18 5 31 8 30 4 -2 23 -22 44 -45z m1331 8 c9 -15 -14 -24 -43 -16 -20 5
-23 8 -11 16 18 11 46 12 54 0z m39 -73 c-2 -35 -5 -70 -5 -79 0 -11 -13 -3
-39 25 l-39 41 37 38 c20 20 39 37 44 37 4 0 5 -28 2 -62z m-1326 -45 c2 -9
-7 -13 -27 -13 -30 0 -39 9 -24 24 11 10 46 3 51 -11z m1267 -34 c10 -16 -1
-22 -26 -14 -17 6 -19 9 -8 16 19 12 26 11 34 -2z m42 -81 c-3 -24 -11 -44
-16 -46 -6 -2 -11 -16 -11 -30 -1 -24 -2 -23 -14 11 -8 21 -21 46 -31 56 -15
18 -14 19 12 26 15 5 34 7 42 6 7 -1 10 2 6 8 -3 6 -1 11 6 11 8 0 10 -13 6
-42z m-71 -69 c14 -23 -13 -30 -37 -10 l-24 20 27 1 c15 0 30 -5 34 -11z m34
-56 c0 -2 -13 -24 -29 -49 l-29 -46 -4 35 c-3 30 0 37 17 40 12 3 7 5 -13 6
-29 1 -32 -1 -22 -18 5 -11 9 -37 9 -58 -1 -37 -2 -37 -10 11 -4 27 -13 54
-18 59 -19 19 -12 22 44 23 30 0 55 -1 55 -3z m-1195 -33 c-19 -21 -55 -27
-55 -10 0 11 35 28 59 29 11 1 10 -4 -4 -19z m983 -92 c-3 -7 -13 -15 -24 -17
-16 -3 -17 -1 -5 13 16 19 34 21 29 4z m122 -15 c-1 -5 -16 -25 -35 -46 -28
-32 -34 -35 -38 -20 -4 15 -5 14 -6 -4 0 -12 -4 -24 -8 -26 -5 -3 -6 16 -4 41
3 33 6 41 11 28 6 -18 7 -18 13 -2 5 12 0 19 -16 26 -17 7 -11 9 31 9 28 1 52
-2 52 -6z m-130 -42 c7 -14 7 -22 -1 -27 -12 -7 -29 12 -29 34 0 19 18 14 30
-7z m-777 -48 c-8 -24 -24 -43 -34 -43 -14 0 -10 22 8 42 21 23 34 23 26 1z
m789 -31 c-7 -2 -26 1 -42 7 -24 8 -30 7 -30 -4 0 -8 7 -11 19 -8 29 8 33 -13
6 -31 -14 -9 -25 -13 -25 -9 0 4 -7 -2 -16 -13 -15 -19 -16 -19 -9 1 4 11 9
36 12 56 l5 36 46 -16 c25 -8 40 -17 34 -19z m-686 1 c-8 -8 -36 5 -36 17 0 7
6 7 21 0 11 -7 18 -14 15 -17z m564 7 c14 -26 3 -45 -16 -29 -16 13 -19 49 -4
49 5 0 14 -9 20 -20z m-550 -50 c0 -28 -22 -51 -36 -37 -6 5 23 67 31 67 3 0
5 -14 5 -30z m423 -20 c3 -11 2 -22 -3 -25 -13 -8 -33 23 -26 41 7 19 22 11
29 -16z m94 13 c24 -10 43 -22 43 -26 0 -5 -4 -6 -9 -3 -5 4 -11 2 -13 -4 -1
-5 -27 -19 -57 -30 -50 -19 -53 -20 -46 -3 4 10 13 33 19 51 6 17 13 32 16 32
3 0 24 -8 47 -17z m-386 -56 c-18 -18 -25 1 -11 30 l14 28 4 -24 c2 -13 -1
-28 -7 -34z m159 17 c0 -15 -6 -24 -15 -24 -16 0 -19 17 -9 44 9 22 24 10 24
-20z m-48 -46 l19 -28 -58 0 -58 1 23 19 c12 10 28 20 35 23 6 2 9 8 4 12 -4
5 -17 -1 -30 -12 -12 -11 -33 -26 -47 -32 l-25 -12 25 18 c14 10 36 30 50 44
22 24 26 25 34 10 5 -9 18 -28 28 -43z m148 27 c38 -39 29 -48 -11 -11 l-27
25 -23 -25 c-12 -13 -18 -24 -12 -24 6 0 16 7 23 15 9 11 17 12 31 4 29 -15
12 -31 -30 -28 -20 2 -42 -1 -49 -5 -28 -17 -22 3 7 23 16 12 33 30 36 41 9
27 16 25 55 -15z"/>
<path d="M480 1203 c-14 -2 -39 -15 -55 -28 l-30 -24 45 22 c65 31 155 35 209
8 59 -31 89 -93 73 -150 -15 -50 -68 -87 -110 -76 -33 8 -62 33 -63 54 0 11
-2 12 -6 3 -6 -15 34 -62 52 -62 7 0 34 -23 60 -51 26 -28 49 -48 52 -46 2 3
5 37 7 75 2 78 15 101 55 103 25 1 26 1 3 8 -16 4 -28 19 -37 46 -37 106 -111
141 -255 118z"/>
<path d="M206 1175 c-9 -24 4 -45 29 -45 24 0 42 30 30 50 -10 15 -52 12 -59
-5z m44 -15 c0 -5 -7 -10 -15 -10 -8 0 -15 5 -15 10 0 6 7 10 15 10 8 0 15 -4
15 -10z"/>
<path d="M1260 1155 c-16 -20 -6 -45 19 -45 26 0 45 32 29 48 -16 16 -33 15
-48 -3z m38 -17 c-6 -18 -28 -21 -28 -4 0 9 7 16 16 16 9 0 14 -5 12 -12z"/>
<path d="M327 1083 c-59 -74 -82 -112 -73 -121 3 -3 6 -1 6 4 0 5 9 24 20 42
17 28 23 32 35 22 8 -7 13 -16 10 -20 -3 -4 3 -14 12 -21 12 -10 14 -10 9 -1
-10 16 -1 15 36 -4 18 -9 44 -20 60 -24 23 -7 28 -5 34 13 3 12 18 38 32 57
l25 35 -31 -29 c-19 -18 -37 -26 -47 -22 -9 3 -13 11 -9 17 4 8 3 9 -4 5 -14
-8 -59 20 -73 46 -8 14 -6 26 6 44 29 45 6 24 -48 -43z m33 -22 c0 -22 -26
-35 -33 -17 -6 14 10 36 25 36 4 0 8 -9 8 -19z m36 -40 c-8 -13 -36 -15 -36
-3 0 4 5 13 12 20 14 14 34 0 24 -17z m34 -16 c0 -8 -4 -15 -10 -15 -5 0 -10
7 -10 15 0 8 5 15 10 15 6 0 10 -7 10 -15z m40 -26 c0 -5 -7 -9 -15 -9 -15 0
-20 12 -9 23 8 8 24 -1 24 -14z"/>
<path d="M620 1113 c0 -6 -3 -20 -6 -30 -5 -15 -4 -15 5 -3 9 13 11 12 12 -5
1 -11 1 -27 0 -36 -1 -9 5 -22 14 -29 12 -10 15 -10 15 4 0 10 -5 27 -11 39
-10 22 -10 22 6 2 21 -27 16 -60 -10 -60 -14 0 -24 11 -32 35 -9 25 -12 29
-12 13 -1 -31 41 -78 62 -70 26 10 20 57 -13 107 -16 25 -30 40 -30 33z"/>
<path d="M797 1076 c-17 -13 -16 -14 6 -12 15 0 23 6 20 14 -6 14 -4 15 -26
-2z"/>
<path d="M540 1050 c0 -11 2 -20 4 -20 2 0 6 9 9 20 3 11 1 20 -4 20 -5 0 -9
-9 -9 -20z"/>
<path d="M817 1034 c-8 -8 1 -24 14 -24 5 0 9 7 9 15 0 15 -12 20 -23 9z"/>
<path d="M367 969 c7 -7 15 -10 18 -7 3 3 -2 9 -12 12 -14 6 -15 5 -6 -5z"/>
<path d="M310 966 c0 -2 8 -10 18 -17 15 -13 16 -12 3 4 -13 16 -21 21 -21 13z"/>
<path d="M780 955 c0 -9 5 -15 11 -13 6 2 11 8 11 13 0 5 -5 11 -11 13 -6 2
-11 -4 -11 -13z"/>
<path d="M410 950 c8 -5 20 -10 25 -10 6 0 3 5 -5 10 -8 5 -19 10 -25 10 -5 0
-3 -5 5 -10z"/>
<path d="M231 919 c-6 -18 -11 -37 -10 -43 0 -6 7 7 15 28 8 22 12 41 10 43
-2 2 -9 -10 -15 -28z"/>
<path d="M450 920 c0 -19 -3 -21 -12 -12 -7 7 -17 12 -22 12 -6 0 -3 -5 7 -11
11 -7 17 -23 18 -52 1 -39 2 -37 10 17 5 33 7 62 4 64 -3 3 -5 -5 -5 -18z"/>
<path d="M1281 884 c0 -11 3 -14 6 -6 3 7 2 16 -1 19 -3 4 -6 -2 -5 -13z"/>
<path d="M1211 856 c-7 -8 -15 -31 -18 -53 -3 -21 -10 -46 -15 -55 -11 -22 -7
-22 37 -4 42 18 85 62 85 87 0 34 -66 53 -89 25z m67 -28 c4 -31 -9 -36 -28
-13 -14 17 -35 21 -25 5 3 -5 1 -10 -5 -10 -7 0 -9 7 -6 16 3 9 6 20 6 25 0 6
12 9 28 7 21 -2 28 -9 30 -30z m-63 -69 c-10 -15 -25 -10 -19 6 4 8 10 12 15
9 5 -3 7 -10 4 -15z"/>
<path d="M1046 825 c-13 -14 -26 -38 -29 -53 -3 -15 -9 -36 -13 -46 -7 -17 -4
-19 35 -13 82 11 128 64 97 112 -21 33 -60 33 -90 0z m82 -26 c2 -15 -5 -32
-18 -44 -11 -10 -20 -13 -20 -7 0 7 -9 21 -21 33 -11 11 -18 24 -14 27 4 4 18
-6 31 -21 27 -31 29 -30 13 7 -7 14 -19 27 -28 30 -9 2 0 4 19 3 30 -2 35 -6
38 -28z m-96 -71 c-7 -7 -12 -8 -12 -2 0 14 12 26 19 19 2 -3 -1 -11 -7 -17z"/>
<path d="M367 779 c-15 -11 -27 -26 -27 -32 0 -6 7 -1 16 11 27 39 34 23 7
-18 -15 -22 -31 -40 -36 -40 -5 0 -3 8 4 17 8 9 0 7 -18 -7 -37 -27 -41 -32
-15 -23 15 6 15 4 -2 -15 -10 -12 -23 -19 -27 -16 -5 3 -6 -3 -2 -12 4 -11 3
-15 -4 -11 -7 5 -9 -1 -6 -15 4 -19 3 -20 -6 -8 -9 12 -10 9 -5 -15 4 -23 3
-26 -5 -15 -13 19 -14 9 -1 -25 11 -30 31 -25 23 5 -4 13 1 26 13 35 11 8 14
15 7 15 -20 0 -2 31 24 41 13 5 22 13 19 18 -3 5 5 12 19 15 14 4 25 11 25 16
0 6 7 10 15 10 18 0 20 17 3 23 -22 8 4 26 50 33 29 4 42 3 42 -5 0 -8 13 -9
40 -5 26 4 40 3 40 -5 0 -7 8 -7 26 1 21 10 28 10 38 -3 6 -8 19 -13 30 -11
31 7 42 -15 20 -39 -19 -22 -19 -22 4 -8 25 15 57 3 57 -22 0 -8 6 -19 13 -24
8 -6 14 -26 15 -45 1 -19 8 -41 15 -48 6 -7 12 -21 12 -31 0 -9 -6 -23 -12
-30 -11 -10 -9 -14 5 -23 14 -7 18 -20 16 -46 -2 -30 4 -44 29 -72 18 -19 32
-42 32 -51 0 -12 6 -16 19 -12 13 3 20 -2 25 -19 6 -19 8 -20 14 -7 5 11 13
14 27 9 18 -7 17 -9 -10 -20 -16 -7 -45 -13 -63 -12 -17 0 -35 -4 -38 -9 -9
-15 -42 -10 -53 9 -9 16 -10 16 -17 -1 -5 -14 -14 -17 -42 -12 -20 3 -41 10
-48 16 -7 6 -15 6 -18 1 -8 -13 -56 -2 -56 12 0 21 13 26 24 10 10 -13 12 -11
14 10 1 23 0 23 -27 13 -19 -7 -27 -16 -24 -26 4 -13 2 -13 -9 1 -9 10 -19 14
-28 8 -18 -11 -42 -1 -36 16 3 8 0 11 -11 7 -8 -3 -18 -2 -22 3 -3 5 -18 15
-33 21 -16 7 -28 20 -28 31 0 13 -7 18 -22 18 -17 -1 -28 9 -40 34 -10 19 -18
31 -18 27 0 -17 -31 24 -33 42 0 11 -5 17 -11 14 -5 -4 -7 1 -3 10 3 9 -1 18
-10 21 -27 11 -27 -1 0 -46 138 -234 445 -326 705 -212 28 13 52 25 52 27 0 3
-17 3 -37 0 -42 -5 -98 12 -88 27 3 5 0 7 -8 4 -18 -7 -70 54 -63 73 3 8 1 11
-5 8 -6 -4 -8 3 -4 22 5 21 4 24 -4 13 -9 -12 -11 -9 -12 15 -2 83 -8 147 -13
152 -3 4 -6 -5 -7 -18 0 -17 -5 -10 -15 21 -7 25 -12 51 -9 57 2 7 -1 12 -7
10 -6 -1 -13 4 -16 12 -3 9 0 11 8 6 21 -13 -5 28 -36 55 -16 14 -22 17 -15 8
17 -23 14 -22 -34 2 -26 13 -59 20 -100 20 -52 0 -114 10 -166 26 -9 2 -28 -5
-42 -17z m382 -83 c-3 -3 -11 5 -18 17 -13 21 -12 21 5 5 10 -10 16 -20 13
-22z m58 -168 c-3 -8 -6 -5 -6 6 -1 11 2 17 5 13 3 -3 4 -12 1 -19z"/>
<path d="M888 793 c-9 -2 -33 -26 -52 -53 -35 -49 -35 -50 -15 -61 28 -14 85
-3 110 22 25 25 25 75 0 89 -11 5 -21 9 -23 9 -2 -1 -11 -3 -20 -6z m46 -30
c11 -28 -8 -33 -27 -7 -17 23 -17 24 1 24 11 0 23 -8 26 -17z m-26 -38 c-3 -3
-9 2 -12 12 -6 14 -5 15 5 6 7 -7 10 -15 7 -18z m-48 -20 c0 -9 -9 -15 -21
-15 -18 0 -19 2 -9 15 7 8 16 15 21 15 5 0 9 -7 9 -15z"/>
<path d="M1303 745 c0 -33 2 -45 4 -27 2 18 2 45 0 60 -2 15 -4 0 -4 -33z"/>
<path d="M202 740 c0 -14 2 -19 5 -12 2 6 2 18 0 25 -3 6 -5 1 -5 -13z"/>
<path d="M521 721 c-7 -5 -9 -11 -4 -14 5 -3 15 -2 22 2 7 5 9 11 4 14 -5 3
-15 2 -22 -2z"/>
<path d="M430 710 c0 -13 11 -13 30 0 12 8 11 10 -7 10 -13 0 -23 -4 -23 -10z"/>
<path d="M580 699 c0 -5 5 -7 10 -4 6 3 10 8 10 11 0 2 -4 4 -10 4 -5 0 -10
-5 -10 -11z"/>
<path d="M626 675 c-3 -9 0 -15 9 -15 8 0 15 7 15 15 0 8 -4 15 -9 15 -5 0
-11 -7 -15 -15z"/>
<path d="M211 664 c0 -11 3 -14 6 -6 3 7 2 16 -1 19 -3 4 -6 -2 -5 -13z"/>
<path d="M1149 667 c-9 -7 -28 -35 -42 -64 -15 -28 -32 -53 -39 -56 -7 -3 9
-6 35 -6 57 -1 111 19 126 47 14 27 14 65 -1 80 -15 15 -58 15 -79 -1z m77
-21 c6 -26 -3 -66 -15 -66 -4 0 -15 16 -24 35 -9 19 -22 35 -27 35 -6 0 -8 5
-5 10 3 6 19 10 35 10 23 0 31 -6 36 -24z m-52 -31 c9 -13 16 -30 16 -37 0 -7
-6 -4 -12 7 -6 11 -20 28 -32 37 -17 14 -18 18 -5 18 9 0 24 -11 33 -25z m-44
-50 c11 -13 8 -15 -15 -15 -23 0 -26 2 -15 15 7 8 14 15 15 15 1 0 8 -7 15
-15z"/>
<path d="M370 660 c0 -5 4 -10 9 -10 6 0 13 5 16 10 3 6 -1 10 -9 10 -9 0 -16
-4 -16 -10z"/>
<path d="M526 654 c-5 -12 -2 -15 10 -10 8 3 18 6 20 6 3 0 2 5 -1 10 -9 15
-22 12 -29 -6z"/>
<path d="M928 643 c-9 -10 -23 -32 -32 -50 -9 -18 -24 -36 -33 -42 -16 -8 -14
-11 12 -21 41 -16 96 2 129 41 28 33 33 58 14 77 -18 18 -73 15 -90 -5z m80
-16 c2 -10 1 -25 -2 -34 -5 -12 -11 -10 -34 13 -15 16 -26 33 -24 37 7 16 57
2 60 -16z m-46 -24 c10 -9 18 -23 18 -32 -1 -12 -3 -11 -12 4 -6 11 -18 26
-26 33 -9 6 -12 12 -7 12 5 0 17 -7 27 -17z m-32 -48 c11 -13 7 -15 -26 -15
-36 1 -38 2 -20 15 25 19 31 19 46 0z"/>
<path d="M780 645 c0 -5 5 -17 10 -25 5 -8 10 -10 10 -5 0 6 -5 17 -10 25 -5
8 -10 11 -10 5z"/>
<path d="M575 629 c-9 -14 -2 -20 14 -10 8 6 9 11 3 15 -6 3 -14 1 -17 -5z"/>
<path d="M665 620 c4 -6 11 -8 16 -5 14 9 11 15 -7 15 -8 0 -12 -5 -9 -10z"/>
<path d="M338 613 c7 -3 16 -2 19 1 4 3 -2 6 -13 5 -11 0 -14 -3 -6 -6z"/>
<path d="M405 610 c-3 -5 1 -10 9 -10 9 0 16 5 16 10 0 6 -4 10 -9 10 -6 0
-13 -4 -16 -10z"/>
<path d="M480 610 c-20 -12 -5 -24 16 -12 9 5 12 12 7 15 -5 3 -15 2 -23 -3z"/>
<path d="M720 600 c0 -5 7 -7 15 -4 8 4 15 8 15 10 0 2 -7 4 -15 4 -8 0 -15
-4 -15 -10z"/>
<path d="M615 580 c-19 -8 -19 -9 2 -9 12 -1 25 4 28 9 7 12 -2 12 -30 0z"/>
<path d="M525 570 c-3 -5 -2 -10 4 -10 5 0 13 5 16 10 3 6 2 10 -4 10 -5 0
-13 -4 -16 -10z"/>
<path d="M295 560 c-3 -5 -2 -10 4 -10 5 0 13 5 16 10 3 6 2 10 -4 10 -5 0
-13 -4 -16 -10z"/>
<path d="M448 558 c10 -13 10 -17 0 -21 -9 -4 -7 -6 4 -6 26 -1 29 14 5 29
-20 12 -21 12 -9 -2z"/>
<path d="M370 550 c0 -5 4 -10 9 -10 6 0 13 5 16 10 3 6 -1 10 -9 10 -9 0 -16
-4 -16 -10z"/>
<path d="M675 550 c-3 -6 1 -7 9 -4 18 7 21 14 7 14 -6 0 -13 -4 -16 -10z"/>
<path d="M590 519 c0 -5 5 -7 10 -4 6 3 10 8 10 11 0 2 -4 4 -10 4 -5 0 -10
-5 -10 -11z"/>
<path d="M720 515 c-7 -9 -8 -15 -2 -15 5 0 12 7 16 15 3 8 4 15 2 15 -2 0 -9
-7 -16 -15z"/>
<path d="M340 480 c0 -5 4 -10 9 -10 6 0 13 5 16 10 3 6 -1 10 -9 10 -9 0 -16
-4 -16 -10z"/>
<path d="M399 463 c-13 -16 -12 -17 4 -4 9 7 17 15 17 17 0 8 -8 3 -21 -13z"/>
<path d="M550 465 c-10 -12 -10 -15 4 -15 9 0 16 7 16 15 0 8 -2 15 -4 15 -2
0 -9 -7 -16 -15z"/>
<path d="M986 426 c-22 -24 -50 -48 -60 -54 -18 -9 -15 -11 21 -22 44 -13 108
-7 119 12 5 8 2 9 -9 5 -12 -5 -17 -1 -17 12 0 10 -7 24 -15 31 -8 7 -15 17
-15 23 0 16 40 -25 41 -42 0 -11 2 -12 6 -3 3 7 -2 24 -11 37 -22 33 -20 37
10 33 37 -4 53 -31 36 -59 -7 -11 -11 -23 -8 -26 3 -3 11 6 17 21 19 40 -1 76
-42 76 -24 0 -41 -10 -73 -44z m4 -60 c0 -9 -9 -12 -25 -8 -24 4 -24 5 -8 17
20 15 33 11 33 -9z"/>
<path d="M690 450 c0 -5 4 -10 9 -10 6 0 13 5 16 10 3 6 -1 10 -9 10 -9 0 -16
-4 -16 -10z"/>
<path d="M397 416 c-4 -10 -1 -13 8 -9 8 3 12 9 9 14 -7 12 -11 11 -17 -5z"/>
<path d="M735 410 c-10 -11 -14 -20 -9 -20 12 1 44 25 44 34 0 12 -17 6 -35
-14z"/>
<path d="M610 410 c0 -5 5 -10 11 -10 5 0 7 5 4 10 -3 6 -8 10 -11 10 -2 0 -4
-4 -4 -10z"/>
<path d="M455 399 c-10 -15 3 -25 16 -12 7 7 7 13 1 17 -6 3 -14 1 -17 -5z"/>
<path d="M526 394 c-3 -8 1 -14 9 -14 20 0 28 17 11 23 -8 3 -17 -1 -20 -9z"/>
<path d="M666 384 c-3 -8 1 -14 9 -14 20 0 28 17 11 23 -8 3 -17 -1 -20 -9z"/>
<path d="M1149 383 c-13 -16 -12 -17 4 -4 9 7 17 15 17 17 0 8 -8 3 -21 -13z"/>
<path d="M730 366 c0 -7 9 -16 21 -19 20 -5 20 -5 3 14 -20 23 -24 23 -24 5z"/>
<path d="M610 338 c-12 -22 -12 -22 6 -6 10 10 15 20 12 24 -4 3 -12 -5 -18
-18z"/>
<path d="M675 340 c2 -14 5 -28 5 -32 0 -4 6 -5 13 -3 6 3 23 -1 37 -8 23 -13
27 -11 48 12 16 18 25 22 28 13 6 -13 24 -7 24 9 0 15 -47 10 -54 -6 -12 -31
-84 -13 -100 25 -3 8 -4 4 -1 -10z"/>
<path d="M456 335 c-3 -9 0 -15 8 -15 7 0 19 7 26 15 10 12 9 15 -8 15 -11 0
-22 -7 -26 -15z"/>
<path d="M1094 328 l-19 -23 23 19 c12 11 22 21 22 23 0 8 -8 2 -26 -19z"/>
<path d="M536 331 c-4 -7 -5 -15 -2 -18 9 -9 19 4 14 18 -4 11 -6 11 -12 0z"/>
<path d="M811 281 c-20 -5 -21 -8 -9 -18 11 -10 16 -8 26 8 7 10 11 19 10 18
-2 -1 -14 -4 -27 -8z"/>
<path d="M690 262 c0 -5 7 -13 16 -16 10 -4 14 -1 12 6 -5 15 -28 23 -28 10z"/>
<path d="M80 920 c-9 -6 -10 -10 -3 -10 6 0 15 5 18 10 8 12 4 12 -15 0z"/>
<path d="M1400 886 c0 -2 8 -10 18 -17 15 -13 16 -12 3 4 -13 16 -21 21 -21
13z"/>
<path d="M72 804 c14 -16 15 -23 5 -33 -9 -10 -8 -11 6 -6 23 9 22 18 -5 41
-23 19 -23 19 -6 -2z"/>
<path d="M1427 762 l-27 -28 27 -24 c16 -14 20 -16 11 -6 -16 18 -16 20 0 33
9 8 11 12 5 8 -18 -9 -16 5 4 27 26 29 9 21 -20 -10z"/>
<path d="M1386 592 c-3 -5 1 -15 8 -21 11 -10 14 -9 12 3 -3 21 -13 29 -20 18z"/>
<path d="M995 118 c-14 -29 -14 -31 0 -14 8 11 15 24 15 29 0 5 7 7 15 3 8 -3
15 -1 15 4 0 23 -31 7 -45 -22z"/>
<path d="M320 1360 c-9 -6 -10 -10 -3 -10 6 0 15 5 18 10 8 12 4 12 -15 0z"/>
<path d="M420 160 c-9 -6 -10 -10 -3 -10 6 0 15 5 18 10 8 12 4 12 -15 0z"/>
<path d="M365 140 c-8 -13 5 -13 25 0 13 8 13 10 -2 10 -9 0 -20 -4 -23 -10z"/>
</g>
</svg>
